<svg width="69" height="68" viewBox="0 0 69 68" fill="none" xmlns="http://www.w3.org/2000/svg">
<g id="Group">
<g id="Clip path group">
<path id="Vector" d="M34.1001 68C52.8778 68 68.1001 52.7777 68.1001 34C68.1001 15.2223 52.8778 0 34.1001 0C15.3224 0 0.100098 15.2223 0.100098 34C0.100098 52.7777 15.3224 68 34.1001 68Z" fill="url(#paint0_linear_31_9263)"/>
<g id="Group_2">
<g id="Group_3">
<g id="Group_4">
<path id="Vector_2" d="M45.1478 37.1135C44.4402 36.321 43.3931 35.9248 42.0157 35.9248H41.827C42.6006 36.1135 43.2233 36.472 43.7044 37.0003C43.9025 37.2173 44.0723 37.472 44.2233 37.755C44.6855 38.6229 44.9119 39.7927 44.9119 41.255C44.9119 42.0663 44.7799 42.7927 44.5157 43.4248C43.9308 44.8588 42.9685 45.7361 41.6572 46.0474H42.0063C43.9025 46.0474 45.2138 45.1512 45.9402 43.3682C46.195 42.7644 46.3176 42.0663 46.327 41.2833C46.327 41.2739 46.327 41.2644 46.327 41.255C46.327 39.821 46.1006 38.689 45.6572 37.8493C45.5063 37.5663 45.3365 37.321 45.1478 37.1135Z" fill="#545454"/>
<path id="Vector_3" d="M33.6384 22.3301H28.0347V23.764H31.8083V49.2263L33.6384 51.1037V23.9055V22.3301Z" fill="#545454"/>
<path id="Vector_4" d="M45.3461 24.2358C45.1763 23.9056 44.9687 23.6131 44.7046 23.3584C44.0159 22.6886 43.1197 22.3584 42.0159 22.3584H39.6763V23.7075H41.0159C42.1197 23.7075 43.0159 24.0376 43.7046 24.7075C43.9593 24.9527 44.1763 25.2546 44.3461 25.5848C44.6668 26.2075 44.8272 26.981 44.8272 27.9056C44.8272 28.7546 44.714 29.4622 44.5065 30.0471C44.4782 30.1225 44.4498 30.198 44.4121 30.2735C44.8838 29.8961 45.2423 29.3678 45.497 28.698C45.5159 28.6603 45.5253 28.6131 45.5442 28.5754C45.7329 28.0188 45.8272 27.349 45.8272 26.5659C45.8272 25.632 45.6574 24.8584 45.3461 24.2358Z" fill="#545454"/>
<path id="Vector_5" d="M52.2702 39.2738C51.9966 37.9059 51.5721 36.7832 50.9966 35.9153C50.8928 35.7549 50.7796 35.604 50.6664 35.4625C50.4589 35.1889 50.2324 34.9436 50.006 34.7172C49.3645 34.0851 48.6381 33.6229 47.8362 33.3398C48.5815 33.0379 49.2324 32.5946 49.789 32.0096C51.1098 30.6417 51.7702 28.8115 51.7702 26.5379C51.7702 25.1512 51.5909 23.9436 51.2419 22.9342C50.9211 21.9908 50.4872 21.17 49.9494 20.4719C49.4023 19.7832 48.7419 19.2078 47.9872 18.7549C46.2136 17.6889 44.3457 17.0946 42.1381 17.0946L16.0249 17.0757V22.3115H16.0438L22.4494 22.3304V23.7644V23.9153V51.1134H28.0438V23.7644V22.3304H33.6475V23.9153V51.1134H43.9966C45.3928 51.1134 46.8079 50.7172 48.223 49.9247C49.4872 49.2172 50.4589 48.2832 51.1475 47.1134C52.0343 45.6134 52.4777 43.7927 52.4777 41.6417C52.4777 40.7644 52.4117 39.9813 52.2702 39.2738ZM39.6758 22.3587H42.0155C43.1192 22.3587 44.0155 22.6889 44.7041 23.3587C44.9589 23.604 45.1758 23.9059 45.3457 24.2361C45.6664 24.8587 45.8268 25.6323 45.8268 26.5568C45.8268 27.3493 45.7324 28.0191 45.5438 28.5663C45.5249 28.604 45.5155 28.6512 45.4966 28.6889C45.2419 29.3587 44.8834 29.887 44.4117 30.2644C43.7985 30.7644 42.9966 31.0191 42.006 31.0191H41.3928H39.6664V22.3587H39.6758ZM46.3268 41.2549C46.3268 41.2644 46.3268 41.2738 46.3268 41.2832C46.3268 42.0662 46.1947 42.7644 45.94 43.3681C45.2136 45.1512 43.9023 46.0474 42.006 46.0474H41.657H41.4023H39.6758V35.9153H41.8268H42.0155C43.3928 35.9153 44.44 36.3115 45.1475 37.104C45.3457 37.321 45.506 37.5568 45.657 37.8398C46.1004 38.6889 46.3268 39.821 46.3268 41.2549Z" fill="url(#paint1_radial_31_9263)"/>
</g>
<path id="Vector_6" d="M16.0434 22.3018L16.0151 22.3112L18.7227 23.764H22.4397V22.3206L16.0434 22.3018Z" fill="#545454"/>
</g>
</g>
</g>
</g>
<defs>
<linearGradient id="paint0_linear_31_9263" x1="57.3737" y1="-2.16037" x2="13.1756" y2="71" gradientUnits="userSpaceOnUse">
<stop stop-color="#373737"/>
<stop offset="1" stop-color="#0D0D0D"/>
</linearGradient>
<radialGradient id="paint1_radial_31_9263" cx="0" cy="0" r="1" gradientUnits="userSpaceOnUse" gradientTransform="translate(-445.616 -42.016) scale(735.837 749.616)">
<stop offset="0.00036561" stop-color="#FDB51B"/>
<stop offset="0.1293" stop-color="#FDAF1A"/>
<stop offset="0.624" stop-color="#FF9F19"/>
<stop offset="0.9992" stop-color="#FF9918"/>
</radialGradient>
</defs>
</svg>
